<?xml version="1.0" encoding="UTF-8" standalone="no"?>
<!DOCTYPE svg PUBLIC "-//W3C//DTD SVG 1.1//EN"
 "http://www.w3.org/Graphics/SVG/1.1/DTD/svg11.dtd">
<!-- Generated by graphviz version 12.2.1 (20241206.2353)
 -->
<!-- Title: ComputationalInteractionOntology Pages: 1 -->
<svg width="2117pt" height="390pt"
 viewBox="0.00 0.00 2117.14 389.75" xmlns="http://www.w3.org/2000/svg" xmlns:xlink="http://www.w3.org/1999/xlink">
<g id="graph0" class="graph" transform="scale(1 1) rotate(0) translate(18 371.75)">
<title>ComputationalInteractionOntology</title>
<polygon fill="#ffffff" stroke="none" points="-18,18 -18,-371.75 2099.14,-371.75 2099.14,18 -18,18"/>
<text text-anchor="middle" x="1040.57" y="-332.65" font-family="Helvetica,sans-Serif" font-size="18.00">Computational Interaction 1.0.0 — canonical analytical dependency graph</text>
<g id="clust1" class="cluster">
<title>cluster_contracts</title>
<path fill="#ffffff" stroke="#9ca3af" stroke-dasharray="5,2" d="M1113.82,-25C1113.82,-25 2061.14,-25 2061.14,-25 2067.14,-25 2073.14,-31 2073.14,-37 2073.14,-37 2073.14,-84 2073.14,-84 2073.14,-90 2067.14,-96 2061.14,-96 2061.14,-96 1113.82,-96 1113.82,-96 1107.82,-96 1101.82,-90 1101.82,-84 1101.82,-84 1101.82,-37 1101.82,-37 1101.82,-31 1107.82,-25 1113.82,-25"/>
<text text-anchor="middle" x="1587.48" y="-82.5" font-family="Helvetica,sans-Serif" font-size="10.00">Executable contract layers</text>
</g>
<!-- domain -->
<g id="node1" class="node">
<title>domain</title>
<path fill="#f4f1e8" stroke="#4b5563" d="M86.22,-47C86.22,-47 12,-47 12,-47 6,-47 0,-41 0,-35 0,-35 0,-23 0,-23 0,-17 6,-11 12,-11 12,-11 86.22,-11 86.22,-11 92.22,-11 98.22,-17 98.22,-23 98.22,-23 98.22,-35 98.22,-35 98.22,-41 92.22,-47 86.22,-47"/>
<text text-anchor="middle" x="49.11" y="-25.12" font-family="Helvetica,sans-Serif" font-size="10.00" fill="#111827">Domain / ontology</text>
</g>
<!-- semantics -->
<g id="node2" class="node">
<title>semantics</title>
<path fill="#f4f1e8" stroke="#4b5563" d="M228.44,-47C228.44,-47 151.22,-47 151.22,-47 145.22,-47 139.22,-41 139.22,-35 139.22,-35 139.22,-23 139.22,-23 139.22,-17 145.22,-11 151.22,-11 151.22,-11 228.44,-11 228.44,-11 234.44,-11 240.44,-17 240.44,-23 240.44,-23 240.44,-35 240.44,-35 240.44,-41 234.44,-47 228.44,-47"/>
<text text-anchor="middle" x="189.83" y="-25.12" font-family="Helvetica,sans-Serif" font-size="10.00" fill="#111827">Semantic structure</text>
</g>
<!-- domain&#45;&gt;semantics -->
<g id="edge1" class="edge">
<title>domain&#45;&gt;semantics</title>
<path fill="none" stroke="#374151" d="M98.63,-29C109.19,-29 120.46,-29 131.34,-29"/>
<polygon fill="#374151" stroke="#374151" points="131.15,-31.28 137.65,-29 131.15,-26.73 131.15,-31.28"/>
</g>
<!-- projection -->
<g id="node3" class="node">
<title>projection</title>
<path fill="#f4f1e8" stroke="#4b5563" d="M405.16,-47C405.16,-47 293.44,-47 293.44,-47 287.44,-47 281.44,-41 281.44,-35 281.44,-35 281.44,-23 281.44,-23 281.44,-17 287.44,-11 293.44,-11 293.44,-11 405.16,-11 405.16,-11 411.16,-11 417.16,-17 417.16,-23 417.16,-23 417.16,-35 417.16,-35 417.16,-41 411.16,-47 405.16,-47"/>
<text text-anchor="middle" x="349.3" y="-25.12" font-family="Helvetica,sans-Serif" font-size="10.00" fill="#111827">Representation / projection</text>
</g>
<!-- semantics&#45;&gt;projection -->
<g id="edge2" class="edge">
<title>semantics&#45;&gt;projection</title>
<path fill="none" stroke="#374151" d="M240.65,-29C250.95,-29 262.01,-29 272.99,-29"/>
<polygon fill="#374151" stroke="#374151" points="272.93,-31.28 279.43,-29 272.93,-26.73 272.93,-31.28"/>
</g>
<!-- observation -->
<g id="node4" class="node">
<title>observation</title>
<path fill="#f4f1e8" stroke="#4b5563" d="M582.63,-76C582.63,-76 470.16,-76 470.16,-76 464.16,-76 458.16,-70 458.16,-64 458.16,-64 458.16,-52 458.16,-52 458.16,-46 464.16,-40 470.16,-40 470.16,-40 582.63,-40 582.63,-40 588.63,-40 594.63,-46 594.63,-52 594.63,-52 594.63,-64 594.63,-64 594.63,-70 588.63,-76 582.63,-76"/>
<text text-anchor="middle" x="526.39" y="-54.12" font-family="Helvetica,sans-Serif" font-size="10.00" fill="#111827">Observation / interpretation</text>
</g>
<!-- projection&#45;&gt;observation -->
<g id="edge3" class="edge">
<title>projection&#45;&gt;observation</title>
<path fill="none" stroke="#374151" d="M417.5,-40.13C428.13,-41.89 439.18,-43.72 449.99,-45.51"/>
<polygon fill="#374151" stroke="#374151" points="449.52,-47.74 456.31,-46.56 450.27,-43.25 449.52,-47.74"/>
</g>
<!-- projection_contract -->
<g id="node16" class="node">
<title>projection_contract</title>
<polygon fill="#eef2ff" stroke="#4b5563" points="1172.04,-69 1109.82,-69 1109.82,-65 1105.82,-65 1105.82,-61 1109.82,-61 1109.82,-41 1105.82,-41 1105.82,-37 1109.82,-37 1109.82,-33 1172.04,-33 1172.04,-69"/>
<polyline fill="none" stroke="#4b5563" points="1109.82,-65 1113.82,-65 1113.82,-61 1109.82,-61"/>
<polyline fill="none" stroke="#4b5563" points="1109.82,-41 1113.82,-41 1113.82,-37 1109.82,-37"/>
<text text-anchor="middle" x="1140.93" y="-47.12" font-family="Helvetica,sans-Serif" font-size="10.00" fill="#111827">Projection</text>
</g>
<!-- projection&#45;&gt;projection_contract -->
<g id="edge24" class="edge">
<title>projection&#45;&gt;projection_contract</title>
<path fill="none" stroke="#374151" stroke-dasharray="1,5" d="M417.5,-18.25C466.87,-10.36 525.39,-1 525.39,-1 525.39,-1 525.39,-1 947.46,-1 947.46,-1 1055.16,-28.98 1109.43,-43.08"/>
</g>
<!-- opportunity -->
<g id="node5" class="node">
<title>opportunity</title>
<path fill="#f4f1e8" stroke="#4b5563" d="M769.97,-118C769.97,-118 695.75,-118 695.75,-118 689.75,-118 683.75,-112 683.75,-106 683.75,-106 683.75,-94 683.75,-94 683.75,-88 689.75,-82 695.75,-82 695.75,-82 769.97,-82 769.97,-82 775.97,-82 781.97,-88 781.97,-94 781.97,-94 781.97,-106 781.97,-106 781.97,-112 775.97,-118 769.97,-118"/>
<text text-anchor="middle" x="732.86" y="-96.12" font-family="Helvetica,sans-Serif" font-size="10.00" fill="#111827">Opportunity profile</text>
</g>
<!-- observation&#45;&gt;opportunity -->
<g id="edge4" class="edge">
<title>observation&#45;&gt;opportunity</title>
<path fill="none" stroke="#374151" d="M594.91,-71.87C621.16,-77.26 650.88,-83.36 675.9,-88.5"/>
<polygon fill="#374151" stroke="#374151" points="675.2,-90.68 682.03,-89.76 676.12,-86.23 675.2,-90.68"/>
</g>
<!-- episode -->
<g id="node6" class="node">
<title>episode</title>
<path fill="#dceef2" stroke="#4b5563" d="M985.07,-239C985.07,-239 907.85,-239 907.85,-239 901.85,-239 895.85,-233 895.85,-227 895.85,-227 895.85,-215 895.85,-215 895.85,-209 901.85,-203 907.85,-203 907.85,-203 985.07,-203 985.07,-203 991.07,-203 997.07,-209 997.07,-215 997.07,-215 997.07,-227 997.07,-227 997.07,-233 991.07,-239 985.07,-239"/>
<text text-anchor="middle" x="946.46" y="-217.12" font-family="Helvetica,sans-Serif" font-size="10.00" fill="#111827">Interaction episode</text>
</g>
<!-- opportunity&#45;&gt;episode -->
<g id="edge5" class="edge">
<title>opportunity&#45;&gt;episode</title>
<path fill="none" stroke="#374151" d="M750.19,-118.23C772.32,-142.93 809.1,-184 809.1,-184 809.1,-184 850.8,-195.31 888.08,-205.43"/>
<polygon fill="#374151" stroke="#374151" points="887.13,-207.53 894,-207.04 888.32,-203.14 887.13,-207.53"/>
</g>
<!-- opportunity_contract -->
<g id="node17" class="node">
<title>opportunity_contract</title>
<polygon fill="#eef2ff" stroke="#4b5563" points="1337.13,-69 1268.16,-69 1268.16,-65 1264.16,-65 1264.16,-61 1268.16,-61 1268.16,-41 1264.16,-41 1264.16,-37 1268.16,-37 1268.16,-33 1337.13,-33 1337.13,-69"/>
<polyline fill="none" stroke="#4b5563" points="1268.16,-65 1272.16,-65 1272.16,-61 1268.16,-61"/>
<polyline fill="none" stroke="#4b5563" points="1268.16,-41 1272.16,-41 1272.16,-37 1268.16,-37"/>
<text text-anchor="middle" x="1302.65" y="-47.12" font-family="Helvetica,sans-Serif" font-size="10.00" fill="#111827">Opportunity</text>
</g>
<!-- opportunity&#45;&gt;opportunity_contract -->
<g id="edge25" class="edge">
<title>opportunity&#45;&gt;opportunity_contract</title>
<path fill="none" stroke="#374151" stroke-dasharray="1,5" d="M782.12,-97.97C898.45,-93.07 1184.79,-81 1184.79,-81 1184.79,-81 1233.34,-68.54 1267.85,-59.68"/>
</g>
<!-- trace -->
<g id="node7" class="node">
<title>trace</title>
<path fill="#f4f1e8" stroke="#4b5563" d="M1172.79,-239C1172.79,-239 1109.07,-239 1109.07,-239 1103.07,-239 1097.07,-233 1097.07,-227 1097.07,-227 1097.07,-215 1097.07,-215 1097.07,-209 1103.07,-203 1109.07,-203 1109.07,-203 1172.79,-203 1172.79,-203 1178.79,-203 1184.79,-209 1184.79,-215 1184.79,-215 1184.79,-227 1184.79,-227 1184.79,-233 1178.79,-239 1172.79,-239"/>
<text text-anchor="middle" x="1140.93" y="-222.75" font-family="Helvetica,sans-Serif" font-size="10.00" fill="#111827">Formal trace /</text>
<text text-anchor="middle" x="1140.93" y="-211.5" font-family="Helvetica,sans-Serif" font-size="10.00" fill="#111827">behavioral trace</text>
</g>
<!-- episode&#45;&gt;trace -->
<g id="edge6" class="edge">
<title>episode&#45;&gt;trace</title>
<path fill="none" stroke="#374151" d="M997.53,-221C1025.63,-221 1060.61,-221 1088.87,-221"/>
<polygon fill="#374151" stroke="#374151" points="1088.64,-223.28 1095.14,-221 1088.64,-218.73 1088.64,-223.28"/>
</g>
<!-- interaction_contract -->
<g id="node18" class="node">
<title>interaction_contract</title>
<polygon fill="#eef2ff" stroke="#4b5563" points="1494.35,-69 1429.88,-69 1429.88,-65 1425.88,-65 1425.88,-61 1429.88,-61 1429.88,-41 1425.88,-41 1425.88,-37 1429.88,-37 1429.88,-33 1494.35,-33 1494.35,-69"/>
<polyline fill="none" stroke="#4b5563" points="1429.88,-65 1433.88,-65 1433.88,-61 1429.88,-61"/>
<polyline fill="none" stroke="#4b5563" points="1429.88,-41 1433.88,-41 1433.88,-37 1429.88,-37"/>
<text text-anchor="middle" x="1462.12" y="-47.12" font-family="Helvetica,sans-Serif" font-size="10.00" fill="#111827">Interaction</text>
</g>
<!-- episode&#45;&gt;interaction_contract -->
<g id="edge26" class="edge">
<title>episode&#45;&gt;interaction_contract</title>
<path fill="none" stroke="#374151" stroke-dasharray="1,5" d="M997.44,-204.8C1111.17,-167.95 1379.51,-81 1379.51,-81 1379.51,-81 1406.79,-70.97 1429.8,-62.51"/>
</g>
<!-- trace&#45;&gt;opportunity -->
<g id="edge16" class="edge">
<title>trace&#45;&gt;opportunity</title>
<path fill="none" stroke="#8b5e3c" stroke-dasharray="5,2" d="M1096.68,-209.27C1054.63,-197.86 997.07,-182.25 997.07,-182.25 997.07,-182.25 895.85,-182.25 895.85,-182.25 895.85,-182.25 875.85,-188 875.85,-188 875.85,-188 809.1,-188 809.1,-188 809.1,-188 776.87,-150.3 754.6,-124.25"/>
<polygon fill="#8b5e3c" stroke="#8b5e3c" points="756.39,-122.85 750.44,-119.38 752.93,-125.8 756.39,-122.85"/>
<text text-anchor="middle" x="946.46" y="-183.45" font-family="Helvetica,sans-Serif" font-size="9.00" fill="#8b5e3c">causal feedback</text>
</g>
<!-- strategy -->
<g id="node8" class="node">
<title>strategy</title>
<path fill="#f4f1e8" stroke="#4b5563" d="M1367.51,-269C1367.51,-269 1237.79,-269 1237.79,-269 1231.79,-269 1225.79,-263 1225.79,-257 1225.79,-257 1225.79,-245 1225.79,-245 1225.79,-239 1231.79,-233 1237.79,-233 1237.79,-233 1367.51,-233 1367.51,-233 1373.51,-233 1379.51,-239 1379.51,-245 1379.51,-245 1379.51,-257 1379.51,-257 1379.51,-263 1373.51,-269 1367.51,-269"/>
<text text-anchor="middle" x="1302.65" y="-247.12" font-family="Helvetica,sans-Serif" font-size="10.00" fill="#111827">Strategy / experience / transfer</text>
</g>
<!-- trace&#45;&gt;strategy -->
<g id="edge7" class="edge">
<title>trace&#45;&gt;strategy</title>
<path fill="none" stroke="#374151" d="M1185.15,-229.12C1195.29,-231.02 1206.42,-233.11 1217.67,-235.23"/>
<polygon fill="#374151" stroke="#374151" points="1217.17,-237.45 1223.98,-236.41 1218.01,-232.98 1217.17,-237.45"/>
</g>
<!-- behavioral_contract -->
<g id="node19" class="node">
<title>behavioral_contract</title>
<polygon fill="#eef2ff" stroke="#4b5563" points="1663.95,-69 1557.48,-69 1557.48,-65 1553.48,-65 1553.48,-61 1557.48,-61 1557.48,-41 1553.48,-41 1553.48,-37 1557.48,-37 1557.48,-33 1663.95,-33 1663.95,-69"/>
<polyline fill="none" stroke="#4b5563" points="1557.48,-65 1561.48,-65 1561.48,-61 1557.48,-61"/>
<polyline fill="none" stroke="#4b5563" points="1557.48,-41 1561.48,-41 1561.48,-37 1557.48,-37"/>
<text text-anchor="middle" x="1610.71" y="-47.12" font-family="Helvetica,sans-Serif" font-size="10.00" fill="#111827">Behavioral evidence</text>
</g>
<!-- trace&#45;&gt;behavioral_contract -->
<g id="edge27" class="edge">
<title>trace&#45;&gt;behavioral_contract</title>
<path fill="none" stroke="#374151" stroke-dasharray="1,5" d="M1185.1,-205.31C1271.73,-173.83 1466.36,-103.1 1558.93,-69.46"/>
</g>
<!-- strategy&#45;&gt;projection -->
<g id="edge17" class="edge">
<title>strategy&#45;&gt;projection</title>
<path fill="none" stroke="#8b5e3c" stroke-dasharray="5,2" d="M1292.48,-232.87C1264.93,-178.42 1184.79,-20 1184.79,-20 1184.79,-20 1097.07,-20 1097.07,-20 1097.07,-20 875.85,-146 875.85,-146 875.85,-146 789.1,-170 789.1,-170 789.1,-170 614.63,-170 614.63,-170 614.63,-170 458.16,-142 458.16,-142 458.16,-142 404.79,-86.08 373.13,-52.92"/>
<polygon fill="#8b5e3c" stroke="#8b5e3c" points="375.05,-51.63 368.91,-48.5 371.76,-54.77 375.05,-51.63"/>
<text text-anchor="middle" x="842.47" y="-165.58" font-family="Helvetica,sans-Serif" font-size="9.00" fill="#8b5e3c">causal feedback</text>
</g>
<!-- formal -->
<g id="node9" class="node">
<title>formal</title>
<path fill="#f4f1e8" stroke="#4b5563" d="M1491.73,-269C1491.73,-269 1432.51,-269 1432.51,-269 1426.51,-269 1420.51,-263 1420.51,-257 1420.51,-257 1420.51,-245 1420.51,-245 1420.51,-239 1426.51,-233 1432.51,-233 1432.51,-233 1491.73,-233 1491.73,-233 1497.73,-233 1503.73,-239 1503.73,-245 1503.73,-245 1503.73,-257 1503.73,-257 1503.73,-263 1497.73,-269 1491.73,-269"/>
<text text-anchor="middle" x="1462.12" y="-247.12" font-family="Helvetica,sans-Serif" font-size="10.00" fill="#111827">Formal models</text>
</g>
<!-- strategy&#45;&gt;formal -->
<g id="edge8" class="edge">
<title>strategy&#45;&gt;formal</title>
<path fill="none" stroke="#374151" d="M1379.62,-251C1390.77,-251 1402,-251 1412.41,-251"/>
<polygon fill="#374151" stroke="#374151" points="1412.18,-253.28 1418.68,-251 1412.18,-248.73 1412.18,-253.28"/>
</g>
<!-- inference -->
<g id="node10" class="node">
<title>inference</title>
<path fill="#f4f1e8" stroke="#4b5563" d="M1664.7,-151C1664.7,-151 1556.73,-151 1556.73,-151 1550.73,-151 1544.73,-145 1544.73,-139 1544.73,-139 1544.73,-127 1544.73,-127 1544.73,-121 1550.73,-115 1556.73,-115 1556.73,-115 1664.7,-115 1664.7,-115 1670.7,-115 1676.7,-121 1676.7,-127 1676.7,-127 1676.7,-139 1676.7,-139 1676.7,-145 1670.7,-151 1664.7,-151"/>
<text text-anchor="middle" x="1610.71" y="-134.75" font-family="Helvetica,sans-Serif" font-size="10.00" fill="#111827">Measurement / similarity /</text>
<text text-anchor="middle" x="1610.71" y="-123.5" font-family="Helvetica,sans-Serif" font-size="10.00" fill="#111827">comparison / prediction</text>
</g>
<!-- formal&#45;&gt;inference -->
<g id="edge9" class="edge">
<title>formal&#45;&gt;inference</title>
<path fill="none" stroke="#374151" d="M1494.65,-232.58C1509.81,-223.72 1524.73,-215 1524.73,-215 1524.73,-215 1560.24,-180.74 1585.35,-156.5"/>
<polygon fill="#374151" stroke="#374151" points="1586.67,-158.4 1589.76,-152.25 1583.51,-155.13 1586.67,-158.4"/>
</g>
<!-- evidence -->
<g id="node11" class="node">
<title>evidence</title>
<path fill="#f4f1e8" stroke="#4b5563" d="M1795.67,-175C1795.67,-175 1729.7,-175 1729.7,-175 1723.7,-175 1717.7,-169 1717.7,-163 1717.7,-163 1717.7,-151 1717.7,-151 1717.7,-145 1723.7,-139 1729.7,-139 1729.7,-139 1795.67,-139 1795.67,-139 1801.67,-139 1807.67,-145 1807.67,-151 1807.67,-151 1807.67,-163 1807.67,-163 1807.67,-169 1801.67,-175 1795.67,-175"/>
<text text-anchor="middle" x="1762.68" y="-158.75" font-family="Helvetica,sans-Serif" font-size="10.00" fill="#111827">Evidence and</text>
<text text-anchor="middle" x="1762.68" y="-147.5" font-family="Helvetica,sans-Serif" font-size="10.00" fill="#111827">explanatory gain</text>
</g>
<!-- inference&#45;&gt;evidence -->
<g id="edge10" class="edge">
<title>inference&#45;&gt;evidence</title>
<path fill="none" stroke="#374151" d="M1677.06,-143.46C1687.88,-145.19 1698.97,-146.96 1709.41,-148.63"/>
<polygon fill="#374151" stroke="#374151" points="1708.98,-150.87 1715.76,-149.65 1709.7,-146.38 1708.98,-150.87"/>
</g>
<!-- measurement_contract -->
<g id="node20" class="node">
<title>measurement_contract</title>
<polygon fill="#eef2ff" stroke="#4b5563" points="1801.67,-69 1723.7,-69 1723.7,-65 1719.7,-65 1719.7,-61 1723.7,-61 1723.7,-41 1719.7,-41 1719.7,-37 1723.7,-37 1723.7,-33 1801.67,-33 1801.67,-69"/>
<polyline fill="none" stroke="#4b5563" points="1723.7,-65 1727.7,-65 1727.7,-61 1723.7,-61"/>
<polyline fill="none" stroke="#4b5563" points="1723.7,-41 1727.7,-41 1727.7,-37 1723.7,-37"/>
<text text-anchor="middle" x="1762.68" y="-47.12" font-family="Helvetica,sans-Serif" font-size="10.00" fill="#111827">Measurement</text>
</g>
<!-- inference&#45;&gt;measurement_contract -->
<g id="edge28" class="edge">
<title>inference&#45;&gt;measurement_contract</title>
<path fill="none" stroke="#374151" stroke-dasharray="1,5" d="M1649.14,-114.57C1663.59,-107.46 1676.7,-101 1676.7,-101 1676.7,-101 1696.7,-88 1696.7,-88 1696.7,-88 1712.95,-78.75 1729.19,-69.5"/>
</g>
<!-- comparison_contract -->
<g id="node21" class="node">
<title>comparison_contract</title>
<polygon fill="#eef2ff" stroke="#4b5563" points="2065.14,-69 1913.67,-69 1913.67,-65 1909.67,-65 1909.67,-61 1913.67,-61 1913.67,-41 1909.67,-41 1909.67,-37 1913.67,-37 1913.67,-33 2065.14,-33 2065.14,-69"/>
<polyline fill="none" stroke="#4b5563" points="1913.67,-65 1917.67,-65 1917.67,-61 1913.67,-61"/>
<polyline fill="none" stroke="#4b5563" points="1913.67,-41 1917.67,-41 1917.67,-37 1913.67,-37"/>
<text text-anchor="middle" x="1989.4" y="-52.75" font-family="Helvetica,sans-Serif" font-size="10.00" fill="#111827">Similarity / transfer / strategy /</text>
<text text-anchor="middle" x="1989.4" y="-41.5" font-family="Helvetica,sans-Serif" font-size="10.00" fill="#111827">prediction / comparison</text>
</g>
<!-- inference&#45;&gt;comparison_contract -->
<g id="edge29" class="edge">
<title>inference&#45;&gt;comparison_contract</title>
<path fill="none" stroke="#374151" stroke-dasharray="1,5" d="M1676.9,-118.81C1742.7,-104.49 1844.23,-82.39 1913.35,-67.34"/>
</g>
<!-- evidence&#45;&gt;semantics -->
<g id="edge18" class="edge">
<title>evidence&#45;&gt;semantics</title>
<path fill="none" stroke="#8b5e3c" stroke-dasharray="5,2" d="M1747.28,-138.66C1734.45,-122.33 1717.7,-101 1717.7,-101 1717.7,-101 1676.7,-20 1676.7,-20 1676.7,-20 1184.79,-15 1184.79,-15 1184.79,-15 1097.07,-15 1097.07,-15 1097.07,-15 1017.07,-16.25 1017.07,-16.25 1017.07,-16.25 895.85,-73 895.85,-73 895.85,-73 789.1,-130 789.1,-130 789.1,-130 656.63,-137 656.63,-137 656.63,-137 614.63,-137 614.63,-137 614.63,-137 458.16,-88 458.16,-88 458.16,-88 417.16,0 417.16,0 417.16,0 281.44,0 281.44,0 281.44,0 266.18,-4.88 248.19,-10.64"/>
<polygon fill="#8b5e3c" stroke="#8b5e3c" points="247.84,-8.36 242.35,-12.51 249.23,-12.7 247.84,-8.36"/>
<text text-anchor="middle" x="1047.07" y="-17.45" font-family="Helvetica,sans-Serif" font-size="9.00" fill="#8b5e3c">theory revision</text>
</g>
<!-- determination -->
<g id="node15" class="node">
<title>determination</title>
<polygon fill="#fff0d8" stroke="#4b5563" points="2070.39,-179.63 1902.42,-179.63 1902.42,-134.37 2076.39,-134.37 2076.39,-173.63 2070.39,-179.63"/>
<polyline fill="none" stroke="#4b5563" points="2070.39,-179.63 2070.39,-173.63"/>
<polyline fill="none" stroke="#4b5563" points="2076.39,-173.63 2070.39,-173.63"/>
<text text-anchor="middle" x="1989.4" y="-164.38" font-family="Helvetica,sans-Serif" font-size="10.00" fill="#111827">Supported determination</text>
<text text-anchor="middle" x="1989.4" y="-153.12" font-family="Helvetica,sans-Serif" font-size="10.00" fill="#111827">Interdisciplinary scientific synthesis</text>
<text text-anchor="middle" x="1989.4" y="-141.88" font-family="Helvetica,sans-Serif" font-size="10.00" fill="#111827">Not an independent discipline</text>
</g>
<!-- evidence&#45;&gt;determination -->
<g id="edge15" class="edge">
<title>evidence&#45;&gt;determination</title>
<path fill="none" stroke="#374151" d="M1808.08,-157C1832.74,-157 1864.39,-157 1894.28,-157"/>
<polygon fill="#374151" stroke="#374151" points="1894.23,-159.28 1900.73,-157 1894.23,-154.73 1894.23,-159.28"/>
<text text-anchor="middle" x="1855.04" y="-158.2" font-family="Helvetica,sans-Serif" font-size="9.00" fill="#374151">supports only</text>
</g>
<!-- participant -->
<g id="node12" class="node">
<title>participant</title>
<path fill="#f4f1e8" stroke="#4b5563" d="M777.1,-327C777.1,-327 688.63,-327 688.63,-327 682.63,-327 676.63,-321 676.63,-315 676.63,-315 676.63,-303 676.63,-303 676.63,-297 682.63,-291 688.63,-291 688.63,-291 777.1,-291 777.1,-291 783.1,-291 789.1,-297 789.1,-303 789.1,-303 789.1,-315 789.1,-315 789.1,-321 783.1,-327 777.1,-327"/>
<text text-anchor="middle" x="732.86" y="-305.12" font-family="Helvetica,sans-Serif" font-size="10.00" fill="#111827">Interaction participant</text>
</g>
<!-- participant&#45;&gt;episode -->
<g id="edge11" class="edge">
<title>participant&#45;&gt;episode</title>
<path fill="none" stroke="#374151" d="M789.57,-295.66C829.35,-286.13 875.85,-275 875.85,-275 875.85,-275 896.71,-258.81 915.6,-244.17"/>
<polygon fill="#374151" stroke="#374151" points="916.96,-245.99 920.7,-240.21 914.17,-242.4 916.96,-245.99"/>
<text text-anchor="middle" x="842.47" y="-292.18" font-family="Helvetica,sans-Serif" font-size="9.00" fill="#374151">participates</text>
</g>
<!-- agent -->
<g id="node13" class="node">
<title>agent</title>
<path fill="#f4f1e8" stroke="#4b5563" d="M578.13,-327C578.13,-327 474.66,-327 474.66,-327 468.66,-327 462.66,-321 462.66,-315 462.66,-315 462.66,-303 462.66,-303 462.66,-297 468.66,-291 474.66,-291 474.66,-291 578.13,-291 578.13,-291 584.13,-291 590.13,-297 590.13,-303 590.13,-303 590.13,-315 590.13,-315 590.13,-321 584.13,-327 578.13,-327"/>
<text text-anchor="middle" x="526.39" y="-305.12" font-family="Helvetica,sans-Serif" font-size="10.00" fill="#111827">Acting participant / agent</text>
</g>
<!-- agent&#45;&gt;participant -->
<g id="edge12" class="edge">
<title>agent&#45;&gt;participant</title>
<path fill="none" stroke="#374151" d="M590.41,-309C615.19,-309 643.59,-309 668.4,-309"/>
<polygon fill="none" stroke="#374151" points="668.31,-311.28 674.81,-309 668.31,-306.73 668.31,-311.28"/>
<text text-anchor="middle" x="635.63" y="-310.2" font-family="Helvetica,sans-Serif" font-size="9.00" fill="#374151">subtype</text>
</g>
<!-- environment -->
<g id="node14" class="node">
<title>environment</title>
<path fill="#f4f1e8" stroke="#4b5563" d="M551.13,-266C551.13,-266 501.66,-266 501.66,-266 495.66,-266 489.66,-260 489.66,-254 489.66,-254 489.66,-242 489.66,-242 489.66,-236 495.66,-230 501.66,-230 501.66,-230 551.13,-230 551.13,-230 557.13,-230 563.13,-236 563.13,-242 563.13,-242 563.13,-254 563.13,-254 563.13,-260 557.13,-266 551.13,-266"/>
<text text-anchor="middle" x="526.39" y="-244.12" font-family="Helvetica,sans-Serif" font-size="10.00" fill="#111827">Environment</text>
</g>
<!-- environment&#45;&gt;opportunity -->
<g id="edge13" class="edge">
<title>environment&#45;&gt;opportunity</title>
<path fill="none" stroke="#374151" d="M552.88,-229.55C590.17,-202.56 659.58,-152.32 700.13,-122.97"/>
<polygon fill="#374151" stroke="#374151" points="701.23,-124.99 705.16,-119.33 698.56,-121.3 701.23,-124.99"/>
<text text-anchor="middle" x="635.63" y="-184.06" font-family="Helvetica,sans-Serif" font-size="9.00" fill="#374151">conditions</text>
</g>
<!-- environment&#45;&gt;episode -->
<g id="edge14" class="edge">
<title>environment&#45;&gt;episode</title>
<path fill="none" stroke="#374151" d="M563.37,-247.38C652.4,-245.85 875.85,-242 875.85,-242 875.85,-242 880.89,-240.48 888.26,-238.25"/>
<polygon fill="#374151" stroke="#374151" points="888.6,-240.53 894.16,-236.48 887.28,-236.17 888.6,-240.53"/>
<text text-anchor="middle" x="732.86" y="-246.6" font-family="Helvetica,sans-Serif" font-size="9.00" fill="#374151">context</text>
</g>
<!-- projection_contract&#45;&gt;opportunity_contract -->
<g id="edge19" class="edge">
<title>projection_contract&#45;&gt;opportunity_contract</title>
<path fill="none" stroke="#6b7280" d="M1172.35,-51C1197.14,-51 1232.42,-51 1259.87,-51"/>
<polygon fill="#6b7280" stroke="#6b7280" points="1259.74,-53.28 1266.24,-51 1259.74,-48.73 1259.74,-53.28"/>
</g>
<!-- opportunity_contract&#45;&gt;interaction_contract -->
<g id="edge20" class="edge">
<title>opportunity_contract&#45;&gt;interaction_contract</title>
<path fill="none" stroke="#6b7280" d="M1337.43,-51C1362.16,-51 1395.8,-51 1421.75,-51"/>
<polygon fill="#6b7280" stroke="#6b7280" points="1421.53,-53.28 1428.03,-51 1421.53,-48.73 1421.53,-53.28"/>
</g>
<!-- interaction_contract&#45;&gt;behavioral_contract -->
<g id="edge21" class="edge">
<title>interaction_contract&#45;&gt;behavioral_contract</title>
<path fill="none" stroke="#6b7280" d="M1494.57,-51C1510.54,-51 1530.5,-51 1549.3,-51"/>
<polygon fill="#6b7280" stroke="#6b7280" points="1549.26,-53.28 1555.76,-51 1549.26,-48.73 1549.26,-53.28"/>
</g>
<!-- behavioral_contract&#45;&gt;measurement_contract -->
<g id="edge22" class="edge">
<title>behavioral_contract&#45;&gt;measurement_contract</title>
<path fill="none" stroke="#6b7280" d="M1664.17,-51C1680.86,-51 1699.2,-51 1715.43,-51"/>
<polygon fill="#6b7280" stroke="#6b7280" points="1715.19,-53.28 1721.69,-51 1715.19,-48.73 1715.19,-53.28"/>
</g>
<!-- measurement_contract&#45;&gt;comparison_contract -->
<g id="edge23" class="edge">
<title>measurement_contract&#45;&gt;comparison_contract</title>
<path fill="none" stroke="#6b7280" d="M1802.06,-51C1830.38,-51 1869.99,-51 1905.41,-51"/>
<polygon fill="#6b7280" stroke="#6b7280" points="1905.35,-53.28 1911.85,-51 1905.35,-48.73 1905.35,-53.28"/>
</g>
</g>
</svg>
