<?xml version="1.0" encoding="UTF-8" standalone="no"?>
<!DOCTYPE svg PUBLIC "-//W3C//DTD SVG 1.1//EN"
 "http://www.w3.org/Graphics/SVG/1.1/DTD/svg11.dtd">
<!-- Generated by graphviz version 12.2.1 (20241206.2353)
 -->
<!-- Title: CompIntContracts Pages: 1 -->
<svg width="1976pt" height="423pt"
 viewBox="0.00 0.00 1976.44 422.75" xmlns="http://www.w3.org/2000/svg" xmlns:xlink="http://www.w3.org/1999/xlink">
<g id="graph0" class="graph" transform="scale(1 1) rotate(0) translate(18 404.75)">
<title>CompIntContracts</title>
<polygon fill="#ffffff" stroke="none" points="-18,18 -18,-404.75 1958.44,-404.75 1958.44,18 -18,18"/>
<text text-anchor="middle" x="970.22" y="-365.65" font-family="Helvetica,sans-Serif" font-size="18.00">CompInt contract architecture 0.2.0</text>
<!-- projection -->
<g id="node1" class="node">
<title>projection</title>
<polygon fill="#eef2ff" stroke="#4b5563" points="104.16,-144 0,-144 0,-140 -4,-140 -4,-136 0,-136 0,-116 -4,-116 -4,-112 0,-112 0,-108 104.16,-108 104.16,-144"/>
<polyline fill="none" stroke="#4b5563" points="0,-140 4,-140 4,-136 0,-136"/>
<polyline fill="none" stroke="#4b5563" points="0,-116 4,-116 4,-112 0,-112"/>
<text text-anchor="middle" x="52.08" y="-127.75" font-family="Helvetica,sans-Serif" font-size="10.00" fill="#111827">Projection Contract</text>
<text text-anchor="middle" x="52.08" y="-116.5" font-family="Helvetica,sans-Serif" font-size="10.00" fill="#111827">unary</text>
</g>
<!-- opportunity -->
<g id="node2" class="node">
<title>opportunity</title>
<polygon fill="#eef2ff" stroke="#4b5563" points="373.57,-144 262.66,-144 262.66,-140 258.66,-140 258.66,-136 262.66,-136 262.66,-116 258.66,-116 258.66,-112 262.66,-112 262.66,-108 373.57,-108 373.57,-144"/>
<polyline fill="none" stroke="#4b5563" points="262.66,-140 266.66,-140 266.66,-136 262.66,-136"/>
<polyline fill="none" stroke="#4b5563" points="262.66,-116 266.66,-116 266.66,-112 262.66,-112"/>
<text text-anchor="middle" x="318.11" y="-127.75" font-family="Helvetica,sans-Serif" font-size="10.00" fill="#111827">Opportunity Contract</text>
<text text-anchor="middle" x="318.11" y="-116.5" font-family="Helvetica,sans-Serif" font-size="10.00" fill="#111827">unary</text>
</g>
<!-- projection&#45;&gt;opportunity -->
<g id="edge1" class="edge">
<title>projection&#45;&gt;opportunity</title>
<path fill="none" stroke="#374151" d="M104.62,-126C147.6,-126 209,-126 254.75,-126"/>
<polygon fill="#374151" stroke="#374151" points="254.51,-128.28 261.01,-126 254.51,-123.73 254.51,-128.28"/>
<text text-anchor="middle" x="183.41" y="-127.2" font-family="Helvetica,sans-Serif" font-size="9.00" fill="#374151">representation + operations</text>
</g>
<!-- interaction -->
<g id="node3" class="node">
<title>interaction</title>
<polygon fill="#eef2ff" stroke="#4b5563" points="614.48,-144 508.07,-144 508.07,-140 504.07,-140 504.07,-136 508.07,-136 508.07,-116 504.07,-116 504.07,-112 508.07,-112 508.07,-108 614.48,-108 614.48,-144"/>
<polyline fill="none" stroke="#4b5563" points="508.07,-140 512.07,-140 512.07,-136 508.07,-136"/>
<polyline fill="none" stroke="#4b5563" points="508.07,-116 512.07,-116 512.07,-112 508.07,-112"/>
<text text-anchor="middle" x="561.27" y="-127.75" font-family="Helvetica,sans-Serif" font-size="10.00" fill="#111827">Interaction Contract</text>
<text text-anchor="middle" x="561.27" y="-116.5" font-family="Helvetica,sans-Serif" font-size="10.00" fill="#111827">relational</text>
</g>
<!-- opportunity&#45;&gt;interaction -->
<g id="edge2" class="edge">
<title>opportunity&#45;&gt;interaction</title>
<path fill="none" stroke="#374151" d="M373.84,-126C411.49,-126 461.5,-126 500.25,-126"/>
<polygon fill="#374151" stroke="#374151" points="499.82,-128.28 506.32,-126 499.82,-123.73 499.82,-128.28"/>
<text text-anchor="middle" x="440.82" y="-127.2" font-family="Helvetica,sans-Serif" font-size="9.00" fill="#374151">availability predicates</text>
</g>
<!-- behavioral -->
<g id="node4" class="node">
<title>behavioral</title>
<polygon fill="#eef2ff" stroke="#4b5563" points="921.39,-144 771.48,-144 771.48,-140 767.48,-140 767.48,-136 771.48,-136 771.48,-116 767.48,-116 767.48,-112 771.48,-112 771.48,-108 921.39,-108 921.39,-144"/>
<polyline fill="none" stroke="#4b5563" points="771.48,-140 775.48,-140 775.48,-136 771.48,-136"/>
<polyline fill="none" stroke="#4b5563" points="771.48,-116 775.48,-116 775.48,-112 771.48,-112"/>
<text text-anchor="middle" x="846.43" y="-127.75" font-family="Helvetica,sans-Serif" font-size="10.00" fill="#111827">Behavioral Evidence Contract</text>
<text text-anchor="middle" x="846.43" y="-116.5" font-family="Helvetica,sans-Serif" font-size="10.00" fill="#111827">evidence&#45;governed</text>
</g>
<!-- interaction&#45;&gt;behavioral -->
<g id="edge3" class="edge">
<title>interaction&#45;&gt;behavioral</title>
<path fill="none" stroke="#374151" d="M614.87,-126C656.53,-126 715.49,-126 763.35,-126"/>
<polygon fill="#374151" stroke="#374151" points="763.22,-128.28 769.72,-126 763.22,-123.73 763.22,-128.28"/>
<text text-anchor="middle" x="692.98" y="-127.2" font-family="Helvetica,sans-Serif" font-size="9.00" fill="#374151">episode boundary + events</text>
</g>
<!-- measurement -->
<g id="node5" class="node">
<title>measurement</title>
<polygon fill="#eef2ff" stroke="#4b5563" points="1182.55,-190 1062.64,-190 1062.64,-186 1058.64,-186 1058.64,-182 1062.64,-182 1062.64,-162 1058.64,-162 1058.64,-158 1062.64,-158 1062.64,-154 1182.55,-154 1182.55,-190"/>
<polyline fill="none" stroke="#4b5563" points="1062.64,-186 1066.64,-186 1066.64,-182 1062.64,-182"/>
<polyline fill="none" stroke="#4b5563" points="1062.64,-162 1066.64,-162 1066.64,-158 1062.64,-158"/>
<text text-anchor="middle" x="1122.59" y="-173.75" font-family="Helvetica,sans-Serif" font-size="10.00" fill="#111827">Measurement Contract</text>
<text text-anchor="middle" x="1122.59" y="-162.5" font-family="Helvetica,sans-Serif" font-size="10.00" fill="#111827">evidence&#45;governed</text>
</g>
<!-- behavioral&#45;&gt;measurement -->
<g id="edge4" class="edge">
<title>behavioral&#45;&gt;measurement</title>
<path fill="none" stroke="#374151" d="M921.63,-138.45C963.11,-145.41 1014.39,-154.01 1054.64,-160.77"/>
<polygon fill="#374151" stroke="#374151" points="1054.26,-163.01 1061.04,-161.84 1055.01,-158.52 1054.26,-163.01"/>
<text text-anchor="middle" x="992.01" y="-158.32" font-family="Helvetica,sans-Serif" font-size="9.00" fill="#374151">attribution + lineage</text>
</g>
<!-- strategy -->
<g id="node8" class="node">
<title>strategy</title>
<polygon fill="#eef2ff" stroke="#4b5563" points="1302.96,-360 1205.55,-360 1205.55,-356 1201.55,-356 1201.55,-352 1205.55,-352 1205.55,-332 1201.55,-332 1201.55,-328 1205.55,-328 1205.55,-324 1302.96,-324 1302.96,-360"/>
<polyline fill="none" stroke="#4b5563" points="1205.55,-356 1209.55,-356 1209.55,-352 1205.55,-352"/>
<polyline fill="none" stroke="#4b5563" points="1205.55,-332 1209.55,-332 1209.55,-328 1205.55,-328"/>
<text text-anchor="middle" x="1254.25" y="-343.75" font-family="Helvetica,sans-Serif" font-size="10.00" fill="#111827">Strategy Contract</text>
<text text-anchor="middle" x="1254.25" y="-332.5" font-family="Helvetica,sans-Serif" font-size="10.00" fill="#111827">multi&#45;episode</text>
</g>
<!-- behavioral&#45;&gt;strategy -->
<g id="edge7" class="edge">
<title>behavioral&#45;&gt;strategy</title>
<path fill="none" stroke="#374151" d="M882.03,-144.42C956.46,-184.03 1131.5,-277.19 1211.74,-319.9"/>
<polygon fill="#374151" stroke="#374151" points="1210.6,-321.87 1217.41,-322.92 1212.74,-317.86 1210.6,-321.87"/>
<text text-anchor="middle" x="992.01" y="-225.95" font-family="Helvetica,sans-Serif" font-size="9.00" fill="#374151">multi&#45;episode evidence</text>
</g>
<!-- coded -->
<g id="node12" class="node">
<title>coded</title>
<polygon fill="#f4f1e8" stroke="#4b5563" points="1180.3,-39 1064.89,-39 1064.89,-3 1180.3,-3 1180.3,-39"/>
<text text-anchor="middle" x="1122.59" y="-17.12" font-family="Helvetica,sans-Serif" font-size="10.00" fill="#111827">Verified / coded event</text>
</g>
<!-- behavioral&#45;&gt;coded -->
<g id="edge17" class="edge">
<title>behavioral&#45;&gt;coded</title>
<path fill="none" stroke="#374151" stroke-dasharray="1,5" d="M876.79,-107.53C905.32,-89.58 944.39,-65 944.39,-65 944.39,-65 1012.75,-48.03 1064.55,-35.16"/>
</g>
<!-- trace -->
<g id="node13" class="node">
<title>trace</title>
<polygon fill="#f4f1e8" stroke="#4b5563" points="1421.49,-72 1334.58,-72 1334.58,-36 1421.49,-36 1421.49,-72"/>
<text text-anchor="middle" x="1378.04" y="-50.12" font-family="Helvetica,sans-Serif" font-size="10.00" fill="#111827">Attributed trace</text>
</g>
<!-- behavioral&#45;&gt;trace -->
<g id="edge18" class="edge">
<title>behavioral&#45;&gt;trace</title>
<path fill="none" stroke="#374151" stroke-dasharray="1,5" d="M921.63,-115.91C1034.08,-100.63 1244.08,-72.08 1334.18,-59.83"/>
</g>
<!-- similarity -->
<g id="node6" class="node">
<title>similarity</title>
<polygon fill="#eef2ff" stroke="#4b5563" points="1428.62,-316 1327.46,-316 1327.46,-312 1323.46,-312 1323.46,-308 1327.46,-308 1327.46,-288 1323.46,-288 1323.46,-284 1327.46,-284 1327.46,-280 1428.62,-280 1428.62,-316"/>
<polyline fill="none" stroke="#4b5563" points="1327.46,-312 1331.46,-312 1331.46,-308 1327.46,-308"/>
<polyline fill="none" stroke="#4b5563" points="1327.46,-288 1331.46,-288 1331.46,-284 1327.46,-284"/>
<text text-anchor="middle" x="1378.04" y="-299.75" font-family="Helvetica,sans-Serif" font-size="10.00" fill="#111827">Similarity Contract</text>
<text text-anchor="middle" x="1378.04" y="-288.5" font-family="Helvetica,sans-Serif" font-size="10.00" fill="#111827">relational</text>
</g>
<!-- measurement&#45;&gt;similarity -->
<g id="edge5" class="edge">
<title>measurement&#45;&gt;similarity</title>
<path fill="none" stroke="#374151" d="M1148.63,-190.33C1172.73,-207.97 1205.55,-232 1205.55,-232 1205.55,-232 1271.85,-257.52 1322,-276.82"/>
<polygon fill="#374151" stroke="#374151" points="1320.97,-278.86 1327.86,-279.07 1322.61,-274.61 1320.97,-278.86"/>
<text text-anchor="middle" x="1254.25" y="-270.15" font-family="Helvetica,sans-Serif" font-size="9.00" fill="#374151">typed measures</text>
</g>
<!-- transfer -->
<g id="node7" class="node">
<title>transfer</title>
<polygon fill="#eef2ff" stroke="#4b5563" points="1426.37,-253 1329.71,-253 1329.71,-249 1325.71,-249 1325.71,-245 1329.71,-245 1329.71,-225 1325.71,-225 1325.71,-221 1329.71,-221 1329.71,-217 1426.37,-217 1426.37,-253"/>
<polyline fill="none" stroke="#4b5563" points="1329.71,-249 1333.71,-249 1333.71,-245 1329.71,-245"/>
<polyline fill="none" stroke="#4b5563" points="1329.71,-225 1333.71,-225 1333.71,-221 1329.71,-221"/>
<text text-anchor="middle" x="1378.04" y="-236.75" font-family="Helvetica,sans-Serif" font-size="10.00" fill="#111827">Transfer Contract</text>
<text text-anchor="middle" x="1378.04" y="-225.5" font-family="Helvetica,sans-Serif" font-size="10.00" fill="#111827">relational</text>
</g>
<!-- measurement&#45;&gt;transfer -->
<g id="edge6" class="edge">
<title>measurement&#45;&gt;transfer</title>
<path fill="none" stroke="#374151" d="M1183.02,-186.77C1224.94,-197.19 1280.71,-211.05 1321.69,-221.24"/>
<polygon fill="#374151" stroke="#374151" points="1321.1,-223.44 1327.95,-222.8 1322.2,-219.02 1321.1,-223.44"/>
<text text-anchor="middle" x="1254.25" y="-217.58" font-family="Helvetica,sans-Serif" font-size="9.00" fill="#374151">baseline + outcome</text>
</g>
<!-- prediction -->
<g id="node9" class="node">
<title>prediction</title>
<polygon fill="#eef2ff" stroke="#4b5563" points="1430.12,-190 1325.96,-190 1325.96,-186 1321.96,-186 1321.96,-182 1325.96,-182 1325.96,-162 1321.96,-162 1321.96,-158 1325.96,-158 1325.96,-154 1430.12,-154 1430.12,-190"/>
<polyline fill="none" stroke="#4b5563" points="1325.96,-186 1329.96,-186 1329.96,-182 1325.96,-182"/>
<polyline fill="none" stroke="#4b5563" points="1325.96,-162 1329.96,-162 1329.96,-158 1325.96,-158"/>
<text text-anchor="middle" x="1378.04" y="-173.75" font-family="Helvetica,sans-Serif" font-size="10.00" fill="#111827">Prediction Contract</text>
<text text-anchor="middle" x="1378.04" y="-162.5" font-family="Helvetica,sans-Serif" font-size="10.00" fill="#111827">target + horizon</text>
</g>
<!-- measurement&#45;&gt;prediction -->
<g id="edge8" class="edge">
<title>measurement&#45;&gt;prediction</title>
<path fill="none" stroke="#374151" d="M1183.02,-172C1223.62,-172 1277.2,-172 1317.77,-172"/>
<polygon fill="#374151" stroke="#374151" points="1317.69,-174.28 1324.19,-172 1317.69,-169.73 1317.69,-174.28"/>
<text text-anchor="middle" x="1254.25" y="-173.2" font-family="Helvetica,sans-Serif" font-size="9.00" fill="#374151">target + evaluation</text>
</g>
<!-- measure -->
<g id="node14" class="node">
<title>measure</title>
<polygon fill="#f4f1e8" stroke="#4b5563" points="1671.03,-131 1553.37,-131 1553.37,-95 1671.03,-95 1671.03,-131"/>
<text text-anchor="middle" x="1612.2" y="-109.12" font-family="Helvetica,sans-Serif" font-size="10.00" fill="#111827">Measure + uncertainty</text>
</g>
<!-- measurement&#45;&gt;measure -->
<g id="edge19" class="edge">
<title>measurement&#45;&gt;measure</title>
<path fill="none" stroke="#374151" stroke-dasharray="1,5" d="M1182.94,-162.91C1242.66,-153.76 1325.96,-141 1325.96,-141 1325.96,-141 1469.73,-126.89 1553.13,-118.7"/>
</g>
<!-- comparison -->
<g id="node10" class="node">
<title>comparison</title>
<polygon fill="#eef2ff" stroke="#4b5563" points="1668.78,-253 1555.62,-253 1555.62,-249 1551.62,-249 1551.62,-245 1555.62,-245 1555.62,-225 1551.62,-225 1551.62,-221 1555.62,-221 1555.62,-217 1668.78,-217 1668.78,-253"/>
<polyline fill="none" stroke="#4b5563" points="1555.62,-249 1559.62,-249 1559.62,-245 1555.62,-245"/>
<polyline fill="none" stroke="#4b5563" points="1555.62,-225 1559.62,-225 1559.62,-221 1555.62,-221"/>
<text text-anchor="middle" x="1612.2" y="-236.75" font-family="Helvetica,sans-Serif" font-size="10.00" fill="#111827">Comparison Contract</text>
<text text-anchor="middle" x="1612.2" y="-225.5" font-family="Helvetica,sans-Serif" font-size="10.00" fill="#111827">relational</text>
</g>
<!-- similarity&#45;&gt;comparison -->
<g id="edge9" class="edge">
<title>similarity&#45;&gt;comparison</title>
<path fill="none" stroke="#374151" d="M1428.84,-284.48C1463.69,-275.03 1510.53,-262.32 1548.01,-252.15"/>
<polygon fill="#374151" stroke="#374151" points="1548.23,-254.44 1553.91,-250.55 1547.04,-250.05 1548.23,-254.44"/>
<text text-anchor="middle" x="1491.74" y="-278.82" font-family="Helvetica,sans-Serif" font-size="9.00" fill="#374151">typed profile</text>
</g>
<!-- transfer&#45;&gt;comparison -->
<g id="edge10" class="edge">
<title>transfer&#45;&gt;comparison</title>
<path fill="none" stroke="#374151" d="M1426.86,-235C1461.68,-235 1509.22,-235 1547.29,-235"/>
<polygon fill="#374151" stroke="#374151" points="1547.25,-237.28 1553.75,-235 1547.25,-232.73 1547.25,-237.28"/>
<text text-anchor="middle" x="1491.74" y="-236.2" font-family="Helvetica,sans-Serif" font-size="9.00" fill="#374151">transport limits</text>
</g>
<!-- strategy&#45;&gt;comparison -->
<g id="edge11" class="edge">
<title>strategy&#45;&gt;comparison</title>
<path fill="none" stroke="#374151" d="M1303.04,-338.72C1354.81,-335.17 1430.12,-330 1430.12,-330 1430.12,-330 1530.37,-293 1530.37,-293 1530.37,-293 1556.75,-274.07 1579.37,-257.84"/>
<polygon fill="#374151" stroke="#374151" points="1580.44,-259.87 1584.4,-254.23 1577.79,-256.18 1580.44,-259.87"/>
<text text-anchor="middle" x="1378.04" y="-338.22" font-family="Helvetica,sans-Serif" font-size="9.00" fill="#374151">rival discrimination</text>
</g>
<!-- prediction&#45;&gt;comparison -->
<g id="edge12" class="edge">
<title>prediction&#45;&gt;comparison</title>
<path fill="none" stroke="#374151" d="M1430.56,-185.98C1465.11,-195.36 1510.84,-207.77 1547.65,-217.75"/>
<polygon fill="#374151" stroke="#374151" points="1547.03,-219.94 1553.9,-219.45 1548.22,-215.55 1547.03,-219.94"/>
<text text-anchor="middle" x="1491.74" y="-214.02" font-family="Helvetica,sans-Serif" font-size="9.00" fill="#374151">calibration + scope</text>
</g>
<!-- claim -->
<g id="node15" class="node">
<title>claim</title>
<polygon fill="#fff0d8" stroke="#4b5563" points="1940.44,-191 1787.53,-191 1787.53,-155 1940.44,-155 1940.44,-191"/>
<text text-anchor="middle" x="1863.98" y="-174.75" font-family="Helvetica,sans-Serif" font-size="10.00" fill="#111827">Bounded comparison, transfer,</text>
<text text-anchor="middle" x="1863.98" y="-163.5" font-family="Helvetica,sans-Serif" font-size="10.00" fill="#111827">strategy, or prediction claim</text>
</g>
<!-- comparison&#45;&gt;claim -->
<g id="edge20" class="edge">
<title>comparison&#45;&gt;claim</title>
<path fill="none" stroke="#374151" stroke-dasharray="1,5" d="M1669.26,-221.09C1704.5,-212.34 1750.37,-200.95 1788.63,-191.46"/>
</g>
<!-- raw -->
<g id="node11" class="node">
<title>raw</title>
<polygon fill="#f4f1e8" stroke="#4b5563" points="906.01,-36 786.85,-36 786.85,0 906.01,0 906.01,-36"/>
<text text-anchor="middle" x="846.43" y="-14.12" font-family="Helvetica,sans-Serif" font-size="10.00" fill="#111827">Raw instrument record</text>
</g>
<!-- raw&#45;&gt;coded -->
<g id="edge13" class="edge">
<title>raw&#45;&gt;coded</title>
<path fill="none" stroke="#8b5e3c" stroke-width="1.4" d="M906.41,-18.08C962.91,-18.15 1039.64,-18.25 1039.64,-18.25 1039.64,-18.25 1046.52,-18.48 1056.29,-18.81"/>
<polygon fill="#8b5e3c" stroke="#8b5e3c" stroke-width="1.4" points="1055.98,-21.07 1062.56,-19.02 1056.14,-16.53 1055.98,-21.07"/>
<text text-anchor="middle" x="992.01" y="-19.45" font-family="Helvetica,sans-Serif" font-size="9.00" fill="#374151">evidence lineage</text>
</g>
<!-- coded&#45;&gt;trace -->
<g id="edge14" class="edge">
<title>coded&#45;&gt;trace</title>
<path fill="none" stroke="#8b5e3c" stroke-width="1.4" d="M1180.79,-28.45C1224.36,-34.12 1283.82,-41.86 1325.83,-47.33"/>
<polygon fill="#8b5e3c" stroke="#8b5e3c" stroke-width="1.4" points="1325.42,-49.57 1332.16,-48.16 1326.01,-45.06 1325.42,-49.57"/>
<text text-anchor="middle" x="1254.25" y="-45.45" font-family="Helvetica,sans-Serif" font-size="9.00" fill="#374151">evidence lineage</text>
</g>
<!-- trace&#45;&gt;measure -->
<g id="edge15" class="edge">
<title>trace&#45;&gt;measure</title>
<path fill="none" stroke="#8b5e3c" stroke-width="1.4" d="M1421.6,-62.23C1466.36,-70.88 1530.37,-83.25 1530.37,-83.25 1530.37,-83.25 1540.42,-86.95 1553.44,-91.74"/>
<polygon fill="#8b5e3c" stroke="#8b5e3c" stroke-width="1.4" points="1552.52,-93.82 1559.4,-93.94 1554.09,-89.55 1552.52,-93.82"/>
<text text-anchor="middle" x="1491.74" y="-84.45" font-family="Helvetica,sans-Serif" font-size="9.00" fill="#374151">evidence lineage</text>
</g>
<!-- measure&#45;&gt;claim -->
<g id="edge16" class="edge">
<title>measure&#45;&gt;claim</title>
<path fill="none" stroke="#8b5e3c" stroke-width="1.4" d="M1671.45,-126.99C1703.35,-134.65 1743.44,-144.29 1778.7,-152.75"/>
<polygon fill="#8b5e3c" stroke="#8b5e3c" stroke-width="1.4" points="1778.17,-154.97 1785.02,-154.27 1779.23,-150.54 1778.17,-154.97"/>
<text text-anchor="middle" x="1729.28" y="-149.57" font-family="Helvetica,sans-Serif" font-size="9.00" fill="#374151">evidence lineage</text>
</g>
</g>
</svg>
